<svg fill="none" height="17" viewBox="0 0 18 17" width="18" xmlns="http://www.w3.org/2000/svg" xmlns:xlink="http://www.w3.org/1999/xlink"><linearGradient id="a" gradientUnits="userSpaceOnUse" x1="17.3093" x2=".445128" y1="8.85918" y2="6.9157"><stop offset="0" stop-color="#8d65e9"/><stop offset=".483" stop-color="#5391e4"/><stop offset="1" stop-color="#6bcd94"/></linearGradient><path d="m3.79785 10.4369c.10814.0001.21322.0369.29688.1055.08369.0685.14077.1644.16211.2705l.07714.3798c.09491.4674.32584.8962.66309 1.2334.33727.3373.76598.5683 1.2334.6631l.37988.0772c.1059.0213.201.0786.26953.1621.06859.0837.10638.1887.10645.2969 0 .1082-.03784.2131-.10645.2968-.06856.0837-.16349.1418-.26953.1631l-.37988.0772c-.46726.0948-.89619.325-1.2334.6621-.33734.3373-.56823.7668-.66309 1.2344l-.07714.3789c-.02127.1061-.07846.2018-.16211.2705-.08367.0685-.18872.1063-.29688.1064-.10831 0-.21408-.0378-.29785-.1064-.08361-.0687-.14085-.1645-.16211-.2705l-.07715-.3789c-.09485-.4675-.32481-.8971-.66211-1.2344-.33729-.3373-.7669-.5672-1.23437-.6621l-.378908-.0772c-.106196-.0213-.201861-.0793-.270508-.1631-.068577-.0837-.106446-.1886-.106446-.2968.000064-.1082.037856-.2132.106446-.2969.068635-.0837.164401-.1408.270508-.1621l.378908-.0772c.4675-.0948.89706-.3257 1.23437-.6631.33705-.3371.56724-.7661.66211-1.2334l.07715-.3798c.02133-.1061.07843-.202.16211-.2705.08377-.0687.18954-.1055.29785-.1055zm8.00875-9.533213c.1423.000023.2806.04947.3907.139643.1099.09019.1849.21606.2129.35547l.2832 1.39551c.1364.67208.4682 1.28948.9531 1.77442.485.48485 1.1023.81576 1.7744.95214l1.3955.28321c.1391.02853.2637.1048.3535.21484.0899.11011.1397.24754.1397.38965-.0001.14211-.0498.27955-.1397.38965-.0898.11004-.2143.18632-.3535.21484l-1.3955.28223c-.6721.13639-1.2894.46822-1.7744.95312-.485.48497-.8167 1.10228-.9531 1.77439l-.2832 1.3955c-.028.1395-.103.2653-.2129.3555-.1101.0902-.2484.1396-.3907.1397-.1423 0-.2805-.0495-.3906-.1397-.11-.0902-.1849-.216-.2129-.3555l-.2832-1.3955c-.1363-.67218-.4681-1.28938-.9531-1.77439-.48504-.48497-1.10219-.81683-1.77442-.95312l-1.3955-.28223c-.13924-.02849-.26463-.10474-.3545-.21484-.08968-.11004-.13865-.24768-.13867-.38965 0-.14196.04902-.2796.13867-.38965.08986-.1101.21527-.18634.3545-.21484l1.3955-.28321c.67218-.13628 1.2894-.46722 1.77442-.95214.485-.48497.8168-1.10227.9531-1.77442l.2832-1.39551c.028-.13946.1029-.26528.2129-.35547.1101-.090195.2483-.139643.3906-.139643z" fill="url(#a)"/></svg>