<svg fill="#1a1a1a" height="50" viewBox="0 0 50 50" width="50" xmlns="http://www.w3.org/2000/svg"><path d="m41 4h-32c-2.757 0-5 2.243-5 5v32c0 2.757 2.243 5 5 5h32c2.757 0 5-2.243 5-5v-32c0-2.757-2.243-5-5-5zm-3.994 18.323c-.227.021-.457.035-.69.035-2.623 0-4.928-1.349-6.269-3.388v11.537c0 4.709-3.818 8.527-8.527 8.527s-8.527-3.818-8.527-8.527 3.818-8.527 8.527-8.527c.178 0 .352.016.527.027v4.202c-.175-.021-.347-.053-.527-.053-2.404 0-4.352 1.948-4.352 4.352s1.948 4.352 4.352 4.352 4.527-1.894 4.527-4.298c0-.095.042-19.594.042-19.594h4.016c.378 3.591 3.277 6.425 6.901 6.685z"/></svg>