<svg width="38" height="43" viewBox="0 0 38 43" fill="none" xmlns="http://www.w3.org/2000/svg"> <path d="M14.9201 16.0796V14.7092C14.2865 14.6033 13.652 14.5698 13.127 14.5698C5.98198 14.5698 0 20.3038 0 27.4144C0 32.0824 2.27137 36.0728 5.72431 38.4342C3.31881 36.0472 1.82751 32.7063 1.82751 28.9242C1.82751 21.826 7.79096 16.0955 14.9201 16.0796ZM19.0375 0V27.6588C19.0375 31.2821 16.4335 33.6135 13.2664 33.6135C12.2163 33.6135 11.2183 33.3681 10.3518 32.9146C11.4522 34.3194 13.1888 35.1277 15.0939 35.1277C18.261 35.1277 20.865 32.7972 20.865 29.1704V1.51072H25.8843C25.7475 1.02891 25.6354 0.525927 25.5489 0H19.0384H19.0375ZM30.5761 8.15805C32.1733 9.80554 34.1658 10.8089 36.1734 11.266V10.0288C34.2867 9.89555 32.3136 9.30167 30.5761 8.15805Z" fill="#2DCCD3" /> <path d="M30.5761 8.15805C29.0319 6.56968 27.8538 4.38214 27.3756 1.51072H25.8843C26.7358 4.6151 28.4883 6.78146 30.577 8.15805H30.5761ZM36.1734 11.266V16.5023C33.2737 16.5023 30.5294 15.949 28.1115 14.3209C30.9273 17.1368 34.3423 18.0157 38 18.0157V11.5395C37.3973 11.4989 36.7814 11.4089 36.1725 11.266H36.1734ZM10.3518 32.9146C9.57524 31.9324 9.11196 30.6617 9.11196 29.1695C9.11196 24.9833 12.384 22.7711 16.7476 23.2308V16.2199C16.114 16.114 15.4796 16.0805 14.951 16.0805H14.9201V21.7174C10.5565 21.2603 7.28445 23.4699 7.28445 27.6597C7.28445 30.1085 8.53662 31.9668 10.3518 32.9146ZM26.2849 27.2026C26.2849 36.0348 19.529 40.7152 13.1614 40.7152C10.4047 40.7152 7.84391 39.8822 5.72432 38.4342C8.10511 40.7964 11.3807 42.226 14.988 42.226C21.3556 42.226 28.1115 37.5456 28.1115 28.7133V14.3218C27.4779 13.893 26.8682 13.3926 26.284 12.8084V27.2035L26.2849 27.2026Z" fill="#F1204A" /> <path d="M13.1605 40.7143C19.5281 40.7143 26.284 36.034 26.284 27.2017V12.8067C26.8682 13.3908 27.4771 13.8912 28.1115 14.32C30.5294 15.9481 33.2737 16.5014 36.1734 16.5014V11.2651C34.1659 10.808 32.1733 9.80466 30.5761 8.15717C28.4874 6.78058 26.7349 4.61422 25.8834 1.50983H20.8641V29.1687C20.8641 32.7954 18.2601 35.1259 15.0931 35.1259C13.1879 35.1259 11.4504 34.3176 10.3509 32.9128C8.53574 31.9651 7.28357 30.1067 7.28357 27.6579C7.28357 23.4691 10.5556 21.2595 14.9192 21.7157V16.0787C7.79009 16.0946 1.82664 21.8251 1.82664 28.9233C1.82664 32.7054 3.31794 36.0463 5.72344 38.4333C7.84303 39.8813 10.4038 40.7143 13.1605 40.7143Z" fill="white" /> </svg>