<svg width="39" height="48" viewBox="0 0 39 48" fill="none" xmlns="http://www.w3.org/2000/svg">
<g clip-path="url(#clip0_50_15)">
<path d="M24.8008 1.05857C29.3281 -1.3008 34.9336 0.417945 37.3164 4.89841C39.6992 9.37888 37.9609 14.9219 33.4336 17.2812L29.7109 19.2383C32.918 19.3554 35.9766 21.1172 37.5781 24.1289C39.9609 28.6094 38.2266 34.1523 33.6953 36.5117L13.8437 46.9414C9.3164 49.3008 3.71093 47.582 1.32811 43.1015C-1.0547 38.6211 0.683583 33.0781 5.21093 30.7187L8.93358 28.7617C5.72655 28.6445 2.66796 26.8828 1.0664 23.8711C-1.31642 19.3906 0.421865 13.8476 4.94921 11.4883L24.8008 1.05857ZM14.0859 16.6133L26.1016 24.0312L14.0859 31.414V16.6133Z" fill="#F40407"/>
<path d="M14.0859 16.6133V31.4141L26.1016 24.0313L14.0859 16.6133Z" fill="white"/>
</g>
<defs>
<clipPath id="clip0_50_15">
<rect width="38.6484" height="48" fill="white"/>
</clipPath>
</defs>
</svg>
