<svg width="69" height="48" viewBox="0 0 69 48" fill="none" xmlns="http://www.w3.org/2000/svg">
<path d="M67.5574 7.49578C66.7624 4.54375 64.4277 2.2239 61.4571 1.43368C56.0784 4.76837e-07 34.5 0 34.5 0C34.5 0 12.9219 4.76837e-07 7.54298 1.43368C4.57238 2.2239 2.23791 4.54375 1.44271 7.49578C3.57628e-07 12.841 0 24 0 24C0 24 3.57628e-07 35.159 1.44271 40.5043C2.23791 43.4563 4.57238 45.7762 7.54298 46.5662C12.9219 48 34.5 48 34.5 48C34.5 48 56.0784 48 61.4571 46.5662C64.4277 45.7762 66.7624 43.4563 67.5574 40.5043C69.0002 35.159 69.0002 24 69.0002 24C69.0002 24 68.9944 12.841 67.5574 7.49578Z" fill="white"/>
<path d="M27.5935 34.285L45.5195 24.001L27.5935 13.7168V34.285Z" fill="black"/>
</svg>
